<svg width="23" height="24" viewBox="0 0 23 24" fill="none" xmlns="http://www.w3.org/2000/svg">
<path d="M11.3342 8H3.77807C3.27707 8 2.79659 8.21071 2.44232 8.58579C2.08806 8.96086 1.88904 9.46957 1.88904 10V14C1.88904 14.5304 2.08806 15.0391 2.44232 15.4142C2.79659 15.7893 3.27707 16 3.77807 16H4.72259V20C4.72259 20.2652 4.8221 20.5196 4.99923 20.7071C5.17636 20.8946 5.4166 21 5.66711 21H7.55614C7.80664 21 8.04688 20.8946 8.22401 20.7071C8.40114 20.5196 8.50066 20.2652 8.50066 20V16H11.3342L16.0568 20V4L11.3342 8ZM20.3071 12C20.3071 13.71 19.4004 15.26 17.9458 16V8C19.3909 8.75 20.3071 10.3 20.3071 12Z" fill="white"/>
</svg>
